<svg width="24" height="24" viewBox="0 0 24 24" fill="none" xmlns="http://www.w3.org/2000/svg">
<path d="M0.000748683 0.75C0.000748683 0.551088 0.079764 0.360322 0.220412 0.21967C0.36106 0.0790178 0.551819 0 0.750725 0H12.0004C15.1829 0 18.235 1.26428 20.4854 3.51472C22.7358 5.76516 24 8.8174 24 12V12.0045C24.0014 13.7065 23.6398 15.3892 22.9394 16.9404C22.2389 18.4916 21.2158 19.8756 19.9381 21H17.4122C19.3801 19.8174 20.9062 18.0223 21.7567 15.8897C22.6072 13.757 22.7353 11.4044 22.1213 9.19199C21.5073 6.97962 20.1851 5.02949 18.3571 3.64024C16.5292 2.25098 14.2963 1.4992 12.0004 1.5H0.750725C0.551819 1.5 0.36106 1.42098 0.220412 1.28033C0.079764 1.13968 0.000748683 0.948912 0.000748683 0.75ZM12.0004 24C9.56293 24.0002 7.18324 23.258 5.17797 21.8723C3.17271 20.4866 1.63698 18.5231 0.775138 16.243C-0.0866993 13.9629 -0.233767 11.4745 0.353505 9.10875C0.940777 6.74304 2.23454 4.61227 4.06262 3H6.58854C4.8789 4.02719 3.49738 5.52034 2.60585 7.30453C1.71432 9.08871 1.34969 11.09 1.5547 13.074C1.82215 15.6587 3.03784 18.0527 4.967 19.7935C6.89615 21.5344 9.40192 22.4986 12.0004 22.5H23.25C23.4489 22.5 23.6397 22.579 23.7803 22.7197C23.921 22.8603 24 23.0511 24 23.25C24 23.4489 23.921 23.6397 23.7803 23.7803C23.6397 23.921 23.4489 24 23.25 24H12.0004ZM12.7503 8.25C12.7503 8.05109 12.6713 7.86032 12.5307 7.71967C12.39 7.57902 12.1993 7.5 12.0004 7.5C11.8015 7.5 11.6107 7.57902 11.4701 7.71967C11.3294 7.86032 11.2504 8.05109 11.2504 8.25V11.25H8.25049C8.05158 11.25 7.86083 11.329 7.72018 11.4697C7.57953 11.6103 7.50051 11.8011 7.50051 12C7.50051 12.1989 7.57953 12.3897 7.72018 12.5303C7.86083 12.671 8.05158 12.75 8.25049 12.75H11.2504V15.75C11.2504 15.9489 11.3294 16.1397 11.4701 16.2803C11.6107 16.421 11.8015 16.5 12.0004 16.5C12.1993 16.5 12.39 16.421 12.5307 16.2803C12.6713 16.1397 12.7503 15.9489 12.7503 15.75V12.75H15.7503C15.9492 12.75 16.1399 12.671 16.2806 12.5303C16.4212 12.3897 16.5002 12.1989 16.5002 12C16.5002 11.8011 16.4212 11.6103 16.2806 11.4697C16.1399 11.329 15.9492 11.25 15.7503 11.25H12.7503V8.25Z" fill="#302980"/>
</svg>
