<svg width="14" height="14" viewBox="0 0 14 14" fill="none" xmlns="http://www.w3.org/2000/svg">
<g clip-path="url(#clip0_1254_1941)">
<path d="M4.50001 4.5V3C4.50001 2.33696 4.7634 1.70107 5.23224 1.23223C5.70108 0.763392 6.33697 0.5 7.00001 0.5C7.66305 0.5 8.29894 0.763392 8.76778 1.23223C9.23662 1.70107 9.50001 2.33696 9.50001 3V4.5M12.88 12.39C12.8958 12.5303 12.8816 12.6723 12.8385 12.8068C12.7954 12.9412 12.7244 13.065 12.63 13.17C12.5354 13.2748 12.4196 13.3585 12.2904 13.4153C12.1611 13.4722 12.0212 13.5011 11.88 13.5H2.12001C1.97878 13.5011 1.83893 13.4722 1.70966 13.4153C1.58039 13.3585 1.46463 13.2748 1.37001 13.17C1.27564 13.065 1.20458 12.9412 1.16149 12.8068C1.1184 12.6723 1.10426 12.5303 1.12001 12.39L2.00001 4.5H12L12.88 12.39Z" stroke="#FA7B1F" stroke-linecap="round" stroke-linejoin="round"/>
</g>
<defs>
<clipPath id="clip0_1254_1941">
<rect width="14" height="14" fill="white"/>
</clipPath>
</defs>
</svg>
