<svg width="20" height="21" viewBox="0 0 20 21" fill="none" xmlns="http://www.w3.org/2000/svg">
<path d="M17.6562 15.5317H2.34375C2.25781 15.5317 2.1875 15.602 2.1875 15.688V16.7817C2.1875 16.8677 2.25781 16.938 2.34375 16.938H17.6562C17.7422 16.938 17.8125 16.8677 17.8125 16.7817V15.688C17.8125 15.602 17.7422 15.5317 17.6562 15.5317ZM3.23633 13.0864L4.01172 13.8579C4.07227 13.9184 4.17188 13.9184 4.23242 13.8579L8.81641 9.28953L10.7227 11.1899C10.8401 11.3063 10.9987 11.3716 11.1641 11.3716C11.3294 11.3716 11.488 11.3063 11.6055 11.1899L16.7656 6.0493C16.8262 5.98875 16.8262 5.88914 16.7656 5.82859L15.9902 5.05516C15.9609 5.02608 15.9212 5.00977 15.8799 5.00977C15.8386 5.00977 15.7989 5.02608 15.7695 5.05516L11.166 9.645L9.25781 7.74461C9.14037 7.62825 8.98173 7.56297 8.81641 7.56297C8.65108 7.56297 8.49244 7.62825 8.375 7.74461L3.23633 12.8657C3.22172 12.8801 3.21012 12.8973 3.2022 12.9163C3.19428 12.9352 3.19021 12.9555 3.19021 12.9761C3.19021 12.9966 3.19428 13.0169 3.2022 13.0359C3.21012 13.0548 3.22172 13.072 3.23633 13.0864Z" fill="#FF6E05"/>
</svg>
