<svg width="42" height="42" viewBox="0 0 42 42" fill="none" xmlns="http://www.w3.org/2000/svg">
<path d="M21 34.629L29.6835 25.9481L27.825 24.0896L22.3125 29.6021V17.2646H19.6875V29.6021L14.175 24.0896L12.3165 25.9481L21 34.629ZM2.625 9.996V37.7606C2.625 38.2314 2.77637 38.6181 3.07912 38.9209C3.38187 39.2236 3.76862 39.375 4.23937 39.375H37.7606C38.2314 39.375 38.6181 39.2236 38.9209 38.9209C39.2236 38.6181 39.375 38.2314 39.375 37.7606V9.996H2.625ZM4.64625 42C3.47025 42 2.40187 41.5196 1.44112 40.5589C0.480374 39.5964 0 38.5289 0 37.3564V9.15337C0 8.64062 0.0813748 8.15937 0.244125 7.70962C0.408625 7.25812 0.653625 6.8425 0.979125 6.46275L5.06888 1.54875C5.44863 1.03775 5.92375 0.651875 6.49425 0.391125C7.06475 0.130375 7.67725 0 8.33175 0H33.5685C34.223 0 34.8442 0.130375 35.4322 0.391125C36.0185 0.653625 36.5015 1.0395 36.8812 1.54875L41.0209 6.5625C41.3464 6.94225 41.5914 7.36663 41.7559 7.83563C41.9186 8.30288 42 8.79288 42 9.30562V37.3537C42 38.5262 41.5196 39.5938 40.5589 40.5563C39.5964 41.517 38.5289 41.9974 37.3564 41.9974L4.64625 42ZM3.6225 7.371H38.325L34.8338 3.1815C34.664 3.01175 34.4697 2.877 34.251 2.77725C34.0322 2.67575 33.8047 2.625 33.5685 2.625H8.379C8.1445 2.625 7.917 2.67575 7.6965 2.77725C7.4795 2.877 7.287 3.01175 7.119 3.1815L3.6225 7.371Z" fill="black"/>
</svg>
