<svg width="12" height="12" viewBox="0 0 12 12" fill="none" xmlns="http://www.w3.org/2000/svg">
<g filter="url(#filter0_b_2260_3646)">
<rect width="12" height="12" rx="2" fill="black" fill-opacity="0.2"/>
</g>
<path fill-rule="evenodd" clip-rule="evenodd" d="M8.85554 3.52221C8.88034 3.49742 8.9 3.46798 8.91342 3.43559C8.92684 3.40319 8.93375 3.36847 8.93375 3.33341C8.93375 3.29835 8.92684 3.26363 8.91342 3.23123C8.9 3.19884 8.88034 3.1694 8.85554 3.14461C8.83075 3.11982 8.80132 3.10015 8.76892 3.08673C8.73653 3.07331 8.70181 3.06641 8.66674 3.06641C8.63168 3.06641 8.59696 3.07331 8.56457 3.08673C8.53217 3.10015 8.50274 3.11982 8.47794 3.14461L6.00008 5.62301L3.52221 3.14461C3.49742 3.11982 3.46798 3.10015 3.43559 3.08673C3.40319 3.07331 3.36847 3.06641 3.33341 3.06641C3.29835 3.06641 3.26363 3.07331 3.23123 3.08673C3.19884 3.10015 3.1694 3.11982 3.14461 3.14461C3.11982 3.1694 3.10015 3.19884 3.08673 3.23123C3.07331 3.26363 3.06641 3.29835 3.06641 3.33341C3.06641 3.36847 3.07331 3.40319 3.08673 3.43559C3.10015 3.46798 3.11982 3.49742 3.14461 3.52221L5.62301 6.00008L3.14461 8.47794C3.09454 8.52802 3.06641 8.59593 3.06641 8.66674C3.06641 8.73756 3.09454 8.80547 3.14461 8.85554C3.19468 8.90562 3.2626 8.93375 3.33341 8.93375C3.40422 8.93375 3.47214 8.90562 3.52221 8.85554L6.00008 6.37714L8.47794 8.85554C8.52802 8.90562 8.59593 8.93375 8.66674 8.93375C8.73756 8.93375 8.80547 8.90562 8.85554 8.85554C8.90562 8.80547 8.93375 8.73756 8.93375 8.66674C8.93375 8.59593 8.90562 8.52802 8.85554 8.47794L6.37714 6.00008L8.85554 3.52221Z" fill="white"/>
<defs>
<filter id="filter0_b_2260_3646" x="-4" y="-4" width="20" height="20" filterUnits="userSpaceOnUse" color-interpolation-filters="sRGB">
<feFlood flood-opacity="0" result="BackgroundImageFix"/>
<feGaussianBlur in="BackgroundImageFix" stdDeviation="2"/>
<feComposite in2="SourceAlpha" operator="in" result="effect1_backgroundBlur_2260_3646"/>
<feBlend mode="normal" in="SourceGraphic" in2="effect1_backgroundBlur_2260_3646" result="shape"/>
</filter>
</defs>
</svg>
