<svg width="28" height="28" viewBox="0 0 28 28" fill="none" xmlns="http://www.w3.org/2000/svg">
<path fill-rule="evenodd" clip-rule="evenodd" d="M23.9939 5.32725C24.0807 5.24047 24.1495 5.13745 24.1965 5.02407C24.2435 4.91069 24.2676 4.78917 24.2676 4.66645C24.2676 4.54372 24.2435 4.4222 24.1965 4.30882C24.1495 4.19544 24.0807 4.09242 23.9939 4.00565C23.9071 3.91887 23.8041 3.85003 23.6907 3.80307C23.5774 3.75611 23.4558 3.73193 23.3331 3.73193C23.2104 3.73193 23.0889 3.75611 22.9755 3.80307C22.8621 3.85003 22.7591 3.91887 22.6723 4.00565L13.9998 12.68L5.32725 4.00565C5.24047 3.91887 5.13745 3.85003 5.02407 3.80307C4.91069 3.75611 4.78917 3.73193 4.66645 3.73193C4.54372 3.73193 4.4222 3.75611 4.30882 3.80307C4.19544 3.85003 4.09242 3.91887 4.00565 4.00565C3.91887 4.09242 3.85003 4.19544 3.80307 4.30882C3.75611 4.4222 3.73193 4.54372 3.73193 4.66645C3.73193 4.78917 3.75611 4.91069 3.80307 5.02407C3.85003 5.13745 3.91887 5.24047 4.00565 5.32725L12.68 13.9998L4.00565 22.6723C3.83039 22.8476 3.73193 23.0853 3.73193 23.3331C3.73193 23.581 3.83039 23.8187 4.00565 23.9939C4.1809 24.1692 4.4186 24.2676 4.66645 24.2676C4.91429 24.2676 5.15199 24.1692 5.32725 23.9939L13.9998 15.3195L22.6723 23.9939C22.8476 24.1692 23.0853 24.2676 23.3331 24.2676C23.581 24.2676 23.8187 24.1692 23.9939 23.9939C24.1692 23.8187 24.2676 23.581 24.2676 23.3331C24.2676 23.0853 24.1692 22.8476 23.9939 22.6723L15.3195 13.9998L23.9939 5.32725Z" fill="#302980"/>
</svg>
