<svg width="42" height="42" viewBox="0 0 42 42" fill="none" xmlns="http://www.w3.org/2000/svg">
<path d="M17.7188 8.53125V9.1875H24.2812V8.53125C24.2812 7.66101 23.9355 6.82641 23.3202 6.21106C22.7048 5.5957 21.8702 5.25 21 5.25C20.1298 5.25 19.2952 5.5957 18.6798 6.21106C18.0645 6.82641 17.7188 7.66101 17.7188 8.53125ZM15.0938 9.1875V8.53125C15.0938 6.96482 15.716 5.46254 16.8237 4.3549C17.9313 3.24726 19.4336 2.625 21 2.625C22.5664 2.625 24.0687 3.24726 25.1763 4.3549C26.284 5.46254 26.9062 6.96482 26.9062 8.53125V9.1875H36.75C37.0981 9.1875 37.4319 9.32578 37.6781 9.57192C37.9242 9.81806 38.0625 10.1519 38.0625 10.5C38.0625 10.8481 37.9242 11.1819 37.6781 11.4281C37.4319 11.6742 37.0981 11.8125 36.75 11.8125H34.7708L32.2875 33.558C32.1044 35.1595 31.3383 36.6376 30.1352 37.7104C28.9321 38.7832 27.3763 39.3758 25.7644 39.375H16.2356C14.6237 39.3758 13.0679 38.7832 11.8648 37.7104C10.6617 36.6376 9.89562 35.1595 9.7125 33.558L7.22925 11.8125H5.25C4.9019 11.8125 4.56806 11.6742 4.32192 11.4281C4.07578 11.1819 3.9375 10.8481 3.9375 10.5C3.9375 10.1519 4.07578 9.81806 4.32192 9.57192C4.56806 9.32578 4.9019 9.1875 5.25 9.1875H15.0938ZM12.3217 33.2588C12.4313 34.2194 12.8905 35.1061 13.6118 35.75C14.3331 36.3938 15.2661 36.7498 16.233 36.75H25.7657C26.7326 36.7498 27.6655 36.3938 28.3869 35.75C29.1082 35.1061 29.5674 34.2194 29.6769 33.2588L32.13 11.8125H9.87131L12.3217 33.2588ZM17.0625 16.4062C17.4106 16.4062 17.7444 16.5445 17.9906 16.7907C18.2367 17.0368 18.375 17.3707 18.375 17.7188V30.8438C18.375 31.1918 18.2367 31.5257 17.9906 31.7718C17.7444 32.018 17.4106 32.1562 17.0625 32.1562C16.7144 32.1562 16.3806 32.018 16.1344 31.7718C15.8883 31.5257 15.75 31.1918 15.75 30.8438V17.7188C15.75 17.3707 15.8883 17.0368 16.1344 16.7907C16.3806 16.5445 16.7144 16.4062 17.0625 16.4062ZM26.25 17.7188C26.25 17.3707 26.1117 17.0368 25.8656 16.7907C25.6194 16.5445 25.2856 16.4062 24.9375 16.4062C24.5894 16.4062 24.2556 16.5445 24.0094 16.7907C23.7633 17.0368 23.625 17.3707 23.625 17.7188V30.8438C23.625 31.1918 23.7633 31.5257 24.0094 31.7718C24.2556 32.018 24.5894 32.1562 24.9375 32.1562C25.2856 32.1562 25.6194 32.018 25.8656 31.7718C26.1117 31.5257 26.25 31.1918 26.25 30.8438V17.7188Z" fill="black"/>
</svg>
