<svg width="30" height="30" viewBox="0 0 30 30" fill="none" xmlns="http://www.w3.org/2000/svg">
<rect width="30" height="30" rx="4" fill="#FFAD05"/>
<path d="M13.1053 8.25V8.5H16.8947V8.25C16.8947 7.71957 16.6951 7.21086 16.3398 6.83579C15.9844 6.46071 15.5025 6.25 15 6.25C14.4975 6.25 14.0156 6.46071 13.6602 6.83579C13.3049 7.21086 13.1053 7.71957 13.1053 8.25ZM11.9211 8.5V8.25C11.9211 7.38805 12.2454 6.5614 12.8229 5.9519C13.4003 5.34241 14.1834 5 15 5C15.8166 5 16.5997 5.34241 17.1771 5.9519C17.7546 6.5614 18.0789 7.38805 18.0789 8.25V8.5H23.4079C23.5649 8.5 23.7155 8.56585 23.8266 8.68306C23.9376 8.80027 24 8.95924 24 9.125C24 9.29076 23.9376 9.44973 23.8266 9.56694C23.7155 9.68415 23.5649 9.75 23.4079 9.75H22.0262L21.0788 21.678C21.0068 22.5838 20.6151 23.428 19.9812 24.0433C19.3473 24.6586 18.5176 25 17.6564 25H12.3436C11.4825 24.9999 10.6529 24.6584 10.0191 24.0431C9.38534 23.4279 8.99366 22.5837 8.92168 21.678L7.97432 9.75H6.59211C6.43507 9.75 6.28446 9.68415 6.17342 9.56694C6.06238 9.44973 6 9.29076 6 9.125C6 8.95924 6.06238 8.80027 6.17342 8.68306C6.28446 8.56585 6.43507 8.5 6.59211 8.5H11.9211ZM10.1016 21.5735C10.1488 22.1669 10.4054 22.72 10.8206 23.1231C11.2359 23.5262 11.7794 23.75 12.3436 23.75H17.6564C18.2207 23.7501 18.7643 23.5264 19.1797 23.1233C19.595 22.7201 19.8517 22.167 19.8988 21.5735L20.8377 9.75H9.16232L10.1016 21.5735ZM13.8158 13.125C13.8158 13.0429 13.8005 12.9617 13.7707 12.8858C13.741 12.81 13.6973 12.7411 13.6424 12.6831C13.5874 12.625 13.5221 12.579 13.4503 12.5476C13.3784 12.5162 13.3014 12.5 13.2237 12.5C13.1459 12.5 13.0689 12.5162 12.9971 12.5476C12.9253 12.579 12.86 12.625 12.805 12.6831C12.75 12.7411 12.7064 12.81 12.6767 12.8858C12.6469 12.9617 12.6316 13.0429 12.6316 13.125V20.375C12.6316 20.4571 12.6469 20.5383 12.6767 20.6142C12.7064 20.69 12.75 20.7589 12.805 20.8169C12.86 20.875 12.9253 20.921 12.9971 20.9524C13.0689 20.9838 13.1459 21 13.2237 21C13.3014 21 13.3784 20.9838 13.4503 20.9524C13.5221 20.921 13.5874 20.875 13.6424 20.8169C13.6973 20.7589 13.741 20.69 13.7707 20.6142C13.8005 20.5383 13.8158 20.4571 13.8158 20.375V13.125ZM16.7763 12.5C17.1032 12.5 17.3684 12.78 17.3684 13.125V20.375C17.3684 20.5408 17.306 20.6997 17.195 20.8169C17.084 20.9342 16.9334 21 16.7763 21C16.6193 21 16.4687 20.9342 16.3576 20.8169C16.2466 20.6997 16.1842 20.5408 16.1842 20.375V13.125C16.1842 12.78 16.4495 12.5 16.7763 12.5Z" fill="white"/>
</svg>
