<svg width="44" height="44" viewBox="0 0 44 44" fill="none" xmlns="http://www.w3.org/2000/svg">
<path d="M8 19.8998C8 13.961 8 10.9895 10.051 9.14571C12.0997 7.29981 15.4013 7.2998 22 7.2998H29C35.5987 7.2998 38.9003 7.29981 40.949 9.14571C43 10.9895 43 13.961 43 19.8998V30.3998C43 36.3386 43 39.3101 40.949 41.1539C38.9003 42.9998 35.5987 42.9998 29 42.9998H22C15.4013 42.9998 12.0997 42.9998 10.051 41.1539C8 39.3101 8 36.3386 8 30.3998V19.8998Z" stroke="black" stroke-width="1.5"/>
<path d="M8 36.7C6.14348 36.7 4.36301 36.0363 3.05025 34.8548C1.7375 33.6733 1 32.0709 1 30.4V17.8C1 9.8809 1 5.9203 3.73467 3.4612C6.467 1 10.8677 1 19.6667 1H29C30.8565 1 32.637 1.66375 33.9497 2.84523C35.2625 4.02671 36 5.62914 36 7.3" stroke="black" stroke-width="1.5"/>
</svg>
