<svg width="42" height="42" viewBox="0 0 42 42" fill="none" xmlns="http://www.w3.org/2000/svg">
<path d="M37.3099 21.6417C37.3099 21.1917 37.4886 20.7602 37.8066 20.4421C38.1247 20.1239 38.556 19.9452 39.0058 19.9452C39.4556 19.9452 39.8869 20.1239 40.205 20.4421C40.523 20.7602 40.7017 21.1917 40.7017 21.6417V40.3037C40.7017 40.7536 40.523 41.1851 40.205 41.5033C39.8869 41.8215 39.4556 42.0002 39.0058 42.0002H1.6959C1.24612 42.0002 0.814763 41.8215 0.496719 41.5033C0.178675 41.1851 0 40.7536 0 40.3037V2.97974C0 2.52979 0.178675 2.09827 0.496719 1.78011C0.814763 1.46195 1.24612 1.2832 1.6959 1.2832H20.3508C20.8006 1.2832 21.232 1.46195 21.55 1.78011C21.8681 2.09827 22.0468 2.52979 22.0468 2.97974C22.0468 3.4297 21.8681 3.86122 21.55 4.17938C21.232 4.49754 20.8006 4.67629 20.3508 4.67629H3.39181V38.6071H37.3099V21.6417Z" fill="black"/>
<path d="M18.1227 23.8811L20.9209 23.4807L38.1106 6.28799C38.2726 6.13149 38.4018 5.94429 38.4906 5.7373C38.5795 5.53032 38.6263 5.3077 38.6283 5.08243C38.6302 4.85717 38.5873 4.63377 38.502 4.42527C38.4168 4.21677 38.2908 4.02735 38.1316 3.86805C37.9724 3.70876 37.783 3.58279 37.5746 3.49748C37.3662 3.41218 37.1429 3.36925 36.9177 3.37121C36.6925 3.37317 36.47 3.41997 36.2631 3.50889C36.0561 3.5978 35.869 3.72704 35.7126 3.88908L18.5195 21.0818L18.1193 23.8811H18.1227ZM40.5086 1.48678C40.9814 1.95944 41.3564 2.52066 41.6123 3.13837C41.8682 3.75609 41.9999 4.41819 41.9999 5.08684C41.9999 5.75549 41.8682 6.41759 41.6123 7.03531C41.3564 7.65302 40.9814 8.21424 40.5086 8.6869L22.9221 26.28C22.6627 26.5404 22.3259 26.7095 21.9622 26.7619L16.3657 27.5626C16.1049 27.6001 15.8389 27.5763 15.5889 27.493C15.3389 27.4097 15.1117 27.2693 14.9254 27.0829C14.7391 26.8966 14.5988 26.6693 14.5155 26.4192C14.4323 26.1691 14.4085 25.903 14.4459 25.6421L15.2464 20.0435C15.2978 19.6801 15.4656 19.3432 15.7246 19.0833L33.3146 1.49017C34.2687 0.536016 35.5625 0 36.9116 0C38.2607 0 39.5545 0.536016 40.5086 1.49017V1.48678Z" fill="black"/>
</svg>
