<svg width="44" height="42" viewBox="0 0 44 42" fill="none" xmlns="http://www.w3.org/2000/svg">
<path d="M13.0741 0.610796C13.9248 1.47591 13.9936 2.94368 13.2288 3.90599L7.04189 11.6823C6.6638 12.1586 6.13104 12.4404 5.56391 12.4502C4.99678 12.4599 4.45542 12.2169 4.05156 11.7697L0.6058 7.88161C-0.193341 6.9679 -0.193341 5.49041 0.6058 4.57669C1.40494 3.66298 2.71966 3.66298 3.5188 4.57669L5.41783 6.72489L10.1525 0.776042C10.9173 -0.186272 12.2148 -0.264035 13.0655 0.601075L13.0741 0.610796ZM13.0741 16.1633C13.9248 17.0284 13.9936 18.4962 13.2288 19.4585L7.04189 27.2348C6.6638 27.7111 6.13104 27.993 5.56391 28.0027C4.99678 28.0124 4.45542 27.7694 4.05156 27.3223L0.6058 23.4342C-0.201933 22.5204 -0.201933 21.0429 0.6058 20.139C1.41353 19.235 2.71966 19.2252 3.5188 20.139L5.41783 22.2872L10.1525 16.3383C10.9173 15.376 12.2148 15.2982 13.0655 16.1633H13.0741ZM19.2524 6.22915C19.2524 4.50865 20.4812 3.11864 22.0021 3.11864H41.2503C42.7712 3.11864 44 4.50865 44 6.22915C44 7.94965 42.7712 9.33966 41.2503 9.33966H22.0021C20.4812 9.33966 19.2524 7.94965 19.2524 6.22915ZM19.2524 21.7817C19.2524 20.0612 20.4812 18.6712 22.0021 18.6712H41.2503C42.7712 18.6712 44 20.0612 44 21.7817C44 23.5022 42.7712 24.8922 41.2503 24.8922H22.0021C20.4812 24.8922 19.2524 23.5022 19.2524 21.7817ZM13.753 37.3342C13.753 35.6137 14.9817 34.2237 16.5027 34.2237H41.2503C42.7712 34.2237 44 35.6137 44 37.3342C44 39.0547 42.7712 40.4447 41.2503 40.4447H16.5027C14.9817 40.4447 13.753 39.0547 13.753 37.3342ZM4.12889 32.6685C5.22281 32.6685 6.27191 33.16 7.04542 34.035C7.81894 34.91 8.25349 36.0968 8.25349 37.3342C8.25349 38.5717 7.81894 39.7584 7.04542 40.6334C6.27191 41.5084 5.22281 42 4.12889 42C3.03498 42 1.98588 41.5084 1.21236 40.6334C0.438851 39.7584 0.00429643 38.5717 0.00429643 37.3342C0.00429643 36.0968 0.438851 34.91 1.21236 34.035C1.98588 33.16 3.03498 32.6685 4.12889 32.6685Z" fill="black"/>
</svg>
