<svg width="40" height="42" viewBox="0 0 40 42" fill="none" xmlns="http://www.w3.org/2000/svg">
<path d="M34.7315 24.1743C34.1229 23.6231 32.7715 23.3317 30.7143 23.3055C29.0984 23.3071 27.4847 23.4159 25.8858 23.631C25.0972 23.2136 24.2829 22.7568 23.6458 22.2082C21.9286 20.7356 20.4943 18.6907 19.6029 16.4411C19.6601 16.2311 19.7115 16.0473 19.7572 15.8583C19.7572 15.8583 20.7258 10.8105 20.4686 9.10422C20.4497 8.93889 20.4074 8.77653 20.3429 8.62122L20.2601 8.42172C19.9972 7.86522 19.4801 7.27459 18.6715 7.30609L18.1829 7.29297C17.2801 7.29297 16.5458 7.71559 16.3543 8.35084C15.7686 10.338 16.3743 13.3095 17.4686 17.1577L17.1886 17.7851C16.4029 19.5438 15.4201 21.3157 14.5515 22.8776L14.4372 23.0797C13.5229 24.723 12.6943 26.1168 11.9429 27.2981L11.1686 27.6761C11.1115 27.7023 9.78291 28.3507 9.47148 28.524C6.82577 29.9756 5.07434 31.6215 4.78291 32.9287C4.69148 33.3461 4.76005 33.879 5.22863 34.1257L5.98005 34.4722C6.29611 34.6198 6.6455 34.6972 7.00006 34.698C8.88291 34.698 11.0715 32.5428 14.0858 27.7102C17.6486 26.652 21.2972 25.855 24.9972 25.3267C27.6429 26.6943 30.8972 27.6446 32.9486 27.6446C33.3143 27.6446 33.6286 27.6131 33.8829 27.5501C34.2592 27.4659 34.5893 27.2588 34.8115 26.9673C35.2086 26.4161 35.2915 25.6575 35.1829 24.8805C35.1146 24.6073 34.9583 24.3594 34.7343 24.1691L34.7315 24.1743ZM6.59148 33.3855C6.93434 32.5218 8.29434 30.8156 10.3058 29.301C10.4315 29.2065 10.7429 28.9387 11.0286 28.6893C8.92577 31.7711 7.5172 32.9996 6.59148 33.3828V33.3855ZM18.5029 8.18547C19.1086 8.18547 19.4543 9.58722 19.4829 10.9023C19.5115 12.2175 19.1772 13.1415 18.7629 13.824C18.4201 12.8133 18.2515 11.22 18.2515 10.1778C18.2515 10.1778 18.2258 8.18547 18.5029 8.18547ZM14.9486 26.1431C15.3715 25.4501 15.8086 24.7177 16.2572 23.9407C17.3515 22.0402 18.0401 20.5545 18.5543 19.3338C19.52 20.978 20.8061 22.4452 22.3486 23.6625C22.5343 23.8068 22.7343 23.9538 22.9401 24.0982C19.8943 24.6521 17.2658 25.3241 14.9486 26.1431ZM34.1486 25.9856C33.9629 26.0932 33.4315 26.1536 33.0915 26.1536C31.9886 26.1536 30.6229 25.6916 28.7115 24.9356C29.4458 24.8857 30.1201 24.8595 30.7258 24.8595C31.8315 24.8595 32.1601 24.8542 33.2401 25.1088C34.3201 25.3635 34.3343 25.878 34.1486 25.983V25.9856Z" fill="black"/>
<path d="M38.1171 9.39487C37.1257 8.15325 35.7429 6.699 34.2257 5.30512C32.7086 3.91125 31.1257 2.64075 29.7743 1.72987C27.4714 0.1785 26.3543 0 25.7143 0H3.57143C1.60286 0 0 1.47263 0 3.28125V38.7188C0 40.5274 1.60286 42 3.57143 42H36.4286C38.3971 42 40 40.5274 40 38.7188V13.125C40 12.537 39.8057 11.5106 38.1171 9.39487ZM32.2029 7.16363C33.5743 8.42362 34.6486 9.55762 35.4429 10.5H28.5686V4.18687C29.5943 4.91663 30.8343 5.90363 32.2029 7.16363ZM37.1429 38.7188C37.1429 39.0757 36.8171 39.375 36.4286 39.375H3.57143C3.38268 39.373 3.20229 39.3032 3.06881 39.1805C2.93534 39.0579 2.85937 38.8922 2.85714 38.7188V3.28125C2.85714 2.92687 3.18571 2.625 3.57143 2.625H25.7143V11.8125C25.7143 12.1606 25.8648 12.4944 26.1327 12.7406C26.4006 12.9867 26.764 13.125 27.1429 13.125H37.1429V38.7188Z" fill="black"/>
</svg>
