<svg width="80" height="81" viewBox="0 0 80 81" fill="none" xmlns="http://www.w3.org/2000/svg">
<path d="M62.7511 0H18.5996V81H79.0886V17.0336L62.7511 0Z" fill="#F4F4F4"/>
<path d="M58.2296 23.815H0V4H58.2296V23.815Z" fill="#DD2025"/>
<path d="M56.2264 52.9476C56.2264 52.9476 65.4726 51.2712 65.4726 54.4296C65.4726 57.5881 59.7445 56.3032 56.2264 52.9476ZM49.3903 53.1883C47.9213 53.5129 46.4897 53.9882 45.1182 54.6065L46.2783 51.9963C47.4384 49.386 48.642 45.8273 48.642 45.8273C50.0264 48.1572 51.6371 50.345 53.4508 52.3588C52.083 52.5627 50.7275 52.8416 49.3903 53.1941V53.1883ZM45.7301 34.3362C45.7301 31.5838 46.6205 30.8327 47.3137 30.8327C48.0069 30.8327 48.7871 31.1662 48.8132 33.5561C48.5873 35.9591 48.0842 38.328 47.3137 40.6154C46.2583 38.6949 45.7122 36.5363 45.7272 34.3449L45.7301 34.3362ZM32.2466 64.836C29.4101 63.1393 38.1951 57.9158 39.7874 57.7476C39.7787 57.7505 35.2165 66.611 32.2466 64.836ZM68.1728 54.8038C68.1438 54.5137 67.8827 51.3031 62.1691 51.4394C59.7876 51.401 57.4072 51.5689 55.0546 51.9412C52.7758 49.6453 50.8133 47.0556 49.2192 44.2408C50.2235 41.3388 50.8313 38.3145 51.0261 35.2498C50.942 31.7695 50.1096 29.774 47.4413 29.803C44.773 29.832 44.3844 32.1668 44.7353 35.6414C45.0791 37.9763 45.7275 40.256 46.664 42.4223C46.664 42.4223 45.4314 46.2594 43.8014 50.0762C42.1714 53.8931 41.0577 55.8943 41.0577 55.8943C38.2233 56.817 35.5551 58.1878 33.1544 59.9547C30.7645 62.1793 29.7929 63.8876 31.0516 65.5958C32.1364 67.0692 35.9329 67.4027 39.3262 62.9566C41.1292 60.6601 42.7764 58.2455 44.2568 55.729C44.2568 55.729 49.4309 54.3107 51.0406 53.9221C52.6503 53.5334 54.5964 53.226 54.5964 53.226C54.5964 53.226 59.321 57.9796 63.8774 57.8114C68.4338 57.6432 68.2134 55.088 68.1844 54.8096" fill="#DD2025"/>
<path d="M62.7534 0V17.0336H79.0909L62.7534 0Z" fill="#F4F4F4"/>
<path d="M19.0856 7.12399H15.2949V21.0455H18.288V16.3528L18.9493 16.3905C19.589 16.3795 20.2228 16.2649 20.8258 16.0512C21.3545 15.8692 21.8409 15.5821 22.2557 15.2072C22.6745 14.849 23.0042 14.3981 23.2186 13.8904C23.5095 13.045 23.6134 12.1465 23.5231 11.2569C23.505 10.6215 23.3936 9.99218 23.1925 9.38914C23.0094 8.95382 22.7377 8.56139 22.3946 8.23682C22.0516 7.91226 21.6447 7.66266 21.2 7.50393C20.8136 7.36336 20.4143 7.26135 20.0079 7.1994C19.7017 7.15216 19.3925 7.12696 19.0827 7.12399M18.5346 13.7773H18.2764V9.48485H18.8391C19.0862 9.46703 19.3341 9.50496 19.5645 9.59582C19.7949 9.68669 20.002 9.82817 20.1704 10.0098C20.5193 10.4768 20.7057 11.0452 20.7011 11.6282C20.7011 12.3417 20.7011 12.9884 20.0572 13.4438C19.5934 13.6989 19.0654 13.8138 18.5375 13.7744M29.1816 7.08629C28.8597 7.08629 28.5465 7.10949 28.326 7.11819L27.6445 7.1356H25.3822V21.0571H28.0447C29.0622 21.085 30.0753 20.9125 31.0262 20.5496C31.7917 20.246 32.4695 19.7565 32.9984 19.1255C33.5129 18.4888 33.8821 17.7474 34.0803 16.9532C34.3081 16.0537 34.4192 15.1286 34.4109 14.2008C34.4672 13.1049 34.3824 12.0064 34.1586 10.9321C33.9462 10.1414 33.5485 9.41261 32.9984 8.80618C32.5669 8.3165 32.0385 7.92149 31.4468 7.64605C30.9386 7.41088 30.404 7.23756 29.8545 7.12979C29.636 7.0937 29.4147 7.0772 29.1932 7.08049M28.6654 18.499H28.3753V9.61246H28.413C29.011 9.54367 29.616 9.65156 30.1532 9.9228C30.5467 10.237 30.8673 10.6328 31.0929 11.0829C31.3364 11.5566 31.4768 12.0766 31.5048 12.6085C31.5309 13.2466 31.5048 13.7686 31.5048 14.2008C31.5166 14.6986 31.4846 15.1964 31.4091 15.6886C31.3197 16.1939 31.1544 16.6829 30.9189 17.1388C30.6524 17.5627 30.2922 17.9199 29.8661 18.1829C29.5083 18.4143 29.0845 18.5223 28.6596 18.4903M43.3845 7.1356H36.3367V21.0571H39.3182V15.5349H43.0886V12.9478H39.3182V9.72268H43.3787V7.1356" fill="white"/>
</svg>
