<svg width="149" height="152" viewBox="0 0 149 152" fill="none" xmlns="http://www.w3.org/2000/svg">
<path d="M117.756 0H34.9033V152H148.413V31.9642L117.756 0Z" fill="#F4F4F4"/>
<path d="M109.27 44.6895H0V7.50586H109.27V44.6895Z" fill="#DD2025"/>
<path d="M105.511 99.358C105.511 99.358 122.862 96.2123 122.862 102.139C122.862 108.066 112.113 105.655 105.511 99.358ZM92.6828 99.8098C89.9261 100.419 87.2396 101.311 84.6659 102.471L86.8429 97.5729C89.0199 92.6746 91.2786 85.9965 91.2786 85.9965C93.8764 90.3687 96.8989 94.4742 100.302 98.2532C97.7357 98.6359 95.1921 99.1592 92.6828 99.8207V99.8098ZM85.8143 64.4331C85.8143 59.2681 87.4851 57.8585 88.7859 57.8585C90.0867 57.8585 91.5507 58.4844 91.5997 62.9691C91.1759 67.4785 90.2317 71.9238 88.7859 76.2163C86.8054 72.6124 85.7805 68.5615 85.8088 64.4494L85.8143 64.4331ZM60.5118 121.667C55.1889 118.483 71.6745 108.681 74.6624 108.366C74.6461 108.371 66.0849 124.998 60.5118 121.667ZM127.929 102.841C127.874 102.297 127.385 96.2721 116.663 96.5279C112.194 96.4559 107.727 96.7709 103.312 97.4695C99.0357 93.1611 95.3531 88.3016 92.3617 83.0195C94.2463 77.5738 95.3868 71.8985 95.7524 66.1475C95.5946 59.6164 94.0325 55.8719 89.0254 55.9264C84.0182 55.9808 83.2889 60.3621 83.9475 66.8823C84.5926 71.2638 85.8094 75.5418 87.5668 79.607C87.5668 79.607 85.2537 86.8075 82.1949 93.9699C79.1362 101.132 77.0463 104.888 77.0463 104.888C71.7274 106.619 66.7203 109.192 62.2153 112.507C57.7306 116.682 55.9073 119.887 58.2694 123.093C60.3049 125.858 67.4293 126.484 73.7971 118.14C77.1805 113.831 80.2715 109.3 83.0494 104.577C83.0494 104.577 92.759 101.916 95.7796 101.187C98.8002 100.457 102.452 99.8805 102.452 99.8805C102.452 99.8805 111.318 108.801 119.868 108.485C128.419 108.17 128.005 103.375 127.951 102.852" fill="#DD2025"/>
<path d="M117.759 0V31.9642H148.417L117.759 0Z" fill="#F4F4F4"/>
<path d="M35.8146 13.3695H28.7012V39.4938H34.3179V30.6878L35.5588 30.7585C36.7593 30.7379 37.9485 30.5228 39.0801 30.1217C40.0723 29.7803 40.985 29.2416 41.7633 28.538C42.5493 27.8657 43.1679 27.0198 43.5703 26.067C44.1161 24.4805 44.3111 22.7944 44.1417 21.1252C44.1077 19.9328 43.8987 18.7518 43.5213 17.6202C43.1777 16.8033 42.6678 16.0669 42.0241 15.4578C41.3804 14.8487 40.6169 14.3804 39.7822 14.0825C39.0573 13.8187 38.308 13.6273 37.5453 13.511C36.9707 13.4224 36.3905 13.3751 35.8092 13.3695M34.7805 25.8548H34.2961V17.7998H35.352C35.8156 17.7663 36.2808 17.8375 36.7132 18.008C37.1456 18.1785 37.5341 18.444 37.8501 18.7849C38.505 19.6612 38.8548 20.7279 38.8461 21.8218C38.8461 23.1607 38.8461 24.3744 37.6379 25.2289C36.7674 25.7076 35.7766 25.9232 34.786 25.8493M54.7602 13.2988C54.1561 13.2988 53.5683 13.3423 53.1546 13.3586L51.8756 13.3913H47.6304V39.5156H52.6267C54.5361 39.5679 56.4371 39.2443 58.2217 38.5632C59.658 37.9934 60.9299 37.0751 61.9226 35.8909C62.8879 34.696 63.5807 33.3048 63.9527 31.8144C64.3803 30.1265 64.5888 28.3905 64.5731 26.6494C64.6787 24.5929 64.5196 22.5315 64.0996 20.5156C63.7011 19.0318 62.9549 17.6642 61.9226 16.5262C61.1127 15.6073 60.1213 14.8661 59.0108 14.3492C58.0572 13.9079 57.054 13.5826 56.0229 13.3804C55.6128 13.3127 55.1975 13.2817 54.782 13.2879M53.7914 34.7153H53.2472V18.0392H53.3179C54.4399 17.9101 55.5752 18.1126 56.5834 18.6216C57.3218 19.2112 57.9234 19.9539 58.3468 20.7986C58.8038 21.6876 59.0672 22.6633 59.1197 23.6614C59.1687 24.8588 59.1197 25.8384 59.1197 26.6494C59.1418 27.5835 59.0817 28.5178 58.9401 29.4414C58.7723 30.3897 58.4622 31.3071 58.0203 32.1627C57.5201 32.9582 56.8442 33.6284 56.0446 34.122C55.3731 34.5563 54.578 34.759 53.7805 34.6989M81.4124 13.3913H68.187V39.5156H73.782V29.153H80.8573V24.2982H73.782V18.2461H81.4016V13.3913" fill="white"/>
</svg>
