<svg width="35" height="35" viewBox="0 0 35 35" fill="none" xmlns="http://www.w3.org/2000/svg">
<path d="M16.4062 3.28125V5.57156C13.3044 6.09219 10.9375 8.80469 10.9375 12.0312C10.9375 13.9748 11.8475 15.4744 13.0572 16.4402C14.2658 17.4059 15.7227 17.9441 17.0898 18.4909C18.457 19.0378 19.7345 19.5934 20.5767 20.2683C21.4167 20.9431 21.875 21.6267 21.875 22.9688C21.875 25.3269 19.9139 27.3438 17.5 27.3438C15.073 27.3438 13.125 25.3958 13.125 22.9688V21.875H10.9375V22.9688C10.9375 26.2117 13.3044 28.9078 16.4062 29.4284V31.7188H18.5938V29.4284C21.7044 28.9034 24.0625 26.1691 24.0625 22.9688C24.0625 21.0208 23.1525 19.5289 21.9428 18.5598C20.7342 17.5897 19.2773 17.0209 17.9102 16.4741C16.543 15.9272 15.2655 15.4022 14.4233 14.7317C13.5822 14.0602 13.125 13.3645 13.125 12.0312C13.125 9.63484 15.0773 7.65625 17.5 7.65625C19.927 7.65625 21.875 9.60422 21.875 12.0312V13.125H24.0625V12.0312C24.0625 8.78828 21.6956 6.09219 18.5938 5.57156V3.28125H16.4062Z" fill="black"/>
</svg>
