<svg width="29" height="30" viewBox="0 0 29 30" fill="none" xmlns="http://www.w3.org/2000/svg">
<g clip-path="url(#clip0_1431_1551)">
<path d="M10.7732 0.0815431H10.7732C9.08982 0.0818967 7.43188 0.497968 5.93971 1.29385C4.44761 2.0897 3.16568 3.2416 2.20148 4.6511C1.23731 6.06054 0.618958 7.68642 0.397826 9.39112C0.176695 11.0958 0.359147 12.8302 0.930046 14.4478C1.50096 16.0655 2.44384 17.5196 3.68001 18.6866C4.91624 19.8536 6.40943 20.6992 8.03369 21.1506C9.658 21.602 11.3647 21.6457 13.0091 21.2779C14.5019 20.9439 15.9026 20.28 17.1146 19.3355L24.2735 26.6779L24.2914 26.6962L24.3111 26.7127L24.438 26.8186L24.4527 26.8309L24.4684 26.8421C24.7575 27.048 25.1133 27.1365 25.4653 27.0877C25.8172 27.039 26.1356 26.8572 26.3593 26.5822C26.5826 26.3076 26.6961 25.9593 26.6802 25.6061C26.6642 25.253 26.5199 24.9165 26.2723 24.6635C26.2722 24.6634 26.2721 24.6633 26.2719 24.6632L19.0969 17.3079C20.2114 15.8124 20.9231 14.0412 21.158 12.1716C21.4117 10.1531 21.0991 8.10184 20.2564 6.25787C19.4136 4.4138 18.0749 2.85233 16.3954 1.75776C14.7158 0.6631 12.7656 0.0811947 10.7732 0.0815431ZM5.36393 5.23862C6.80077 3.76533 8.74682 2.94002 10.7733 2.94002C12.7997 2.94002 14.7458 3.76533 16.1826 5.23862C17.6199 6.71234 18.4295 8.71374 18.4295 10.8032C18.4295 12.8926 17.6199 14.894 16.1826 16.3677C14.7458 17.841 12.7997 18.6663 10.7733 18.6663C8.74682 18.6663 6.80077 17.841 5.36393 16.3677C3.92668 14.894 3.11709 12.8926 3.11709 10.8032C3.11709 8.71374 3.92668 6.71234 5.36393 5.23862Z" fill="#302980" stroke="#302980"/>
</g>
<defs>
<clipPath id="clip0_1431_1551">
<rect width="29" height="29.7363" fill="white"/>
</clipPath>
</defs>
</svg>
