<svg width="42" height="42" viewBox="0 0 42 42" fill="none" xmlns="http://www.w3.org/2000/svg">
<path d="M1.90874 42H28.6311C29.6834 42 30.5398 41.1167 30.5398 40.0312V30.1875C30.5398 30.1744 30.5334 30.1639 30.5322 30.1507C30.6021 30.1048 30.6747 30.0615 30.7434 30.0129L40.9055 40.4946C40.9641 40.5573 41.0343 40.6074 41.1118 40.6419C41.1894 40.6764 41.2729 40.6946 41.3573 40.6955C41.4418 40.6964 41.5256 40.6799 41.6039 40.647C41.6821 40.6141 41.7532 40.5655 41.813 40.504C41.8728 40.4425 41.9202 40.3693 41.9523 40.2887C41.9844 40.2081 42.0006 40.1217 42 40.0345C41.9994 39.9474 41.9819 39.8613 41.9487 39.7812C41.9155 39.701 41.8671 39.6286 41.8064 39.5679L31.7372 29.1821C32.5635 28.387 33.2224 27.4251 33.6731 26.3562C34.1238 25.2874 34.3567 24.1343 34.3573 22.9688C34.356 21.5366 34.0049 20.1278 33.3364 18.8725C32.6678 17.6173 31.7034 16.556 30.5322 15.7867C30.5334 15.7736 30.5398 15.7631 30.5398 15.75V12.4688C30.5398 12.4464 30.5296 12.4281 30.5283 12.4071C30.5258 12.3769 30.5182 12.3506 30.5118 12.3217C30.4918 12.2306 30.4527 12.145 30.3973 12.0711C30.3884 12.0592 30.3896 12.0448 30.3807 12.033L20.2008 0.2205C20.197 0.216562 20.1919 0.216562 20.1881 0.212625C20.1106 0.128698 20.0125 0.0679306 19.9043 0.03675C19.8801 0.028875 19.8585 0.02625 19.8331 0.0223125C19.7962 0.01575 19.7618 0 19.7236 0H1.90874C0.856387 0 0 0.883312 0 1.96875V40.0312C0 41.1167 0.856387 42 1.90874 42ZM33.0848 22.9688C33.0848 26.9496 29.9443 30.1875 26.0861 30.1875C22.2279 30.1875 19.0874 26.9496 19.0874 22.9688C19.0874 18.9879 22.2279 15.75 26.0861 15.75C29.9443 15.75 33.0848 18.9879 33.0848 22.9688ZM20.3599 2.38219L28.4873 11.8125H20.9961C20.7162 11.8125 20.3599 11.2612 20.3599 10.8281V2.38219ZM1.27249 1.96875C1.27249 1.7947 1.33952 1.62778 1.45884 1.50471C1.57816 1.38164 1.73999 1.3125 1.90874 1.3125H19.0874V10.8281C19.0874 11.8899 19.9209 13.125 20.9961 13.125H29.2673V15.0951C27.7303 14.4319 26.0345 14.2649 24.4036 14.6162C22.7727 14.9674 21.2834 15.8204 20.1321 17.0625H6.9987C6.82996 17.0625 6.66813 17.1316 6.54881 17.2547C6.42949 17.3778 6.36246 17.5447 6.36246 17.7188C6.36246 17.8928 6.42949 18.0597 6.54881 18.1828C6.66813 18.3059 6.82996 18.375 6.9987 18.375H19.1281C18.3906 19.5573 17.9507 20.9106 17.848 22.3125H6.9987C6.82996 22.3125 6.66813 22.3816 6.54881 22.5047C6.42949 22.6278 6.36246 22.7947 6.36246 22.9688C6.36246 23.1428 6.42949 23.3097 6.54881 23.4328C6.66813 23.5559 6.82996 23.625 6.9987 23.625H17.8467C17.95 25.0267 18.39 26.3799 19.1268 27.5625H6.9987C6.82996 27.5625 6.66813 27.6316 6.54881 27.7547C6.42949 27.8778 6.36246 28.0447 6.36246 28.2188C6.36246 28.3928 6.42949 28.5597 6.54881 28.6828C6.66813 28.8059 6.82996 28.875 6.9987 28.875H20.0417C20.0685 28.875 20.0914 28.8632 20.1181 28.8593C21.269 30.1066 22.76 30.964 24.3939 31.3179C26.0277 31.6718 27.7271 31.5056 29.2673 30.8411V40.0312C29.2673 40.2053 29.2003 40.3722 29.081 40.4953C28.9616 40.6184 28.7998 40.6875 28.6311 40.6875H1.90874C1.55244 40.6875 1.27249 40.3988 1.27249 40.0312V1.96875Z" fill="black"/>
<path d="M6.99855 13.125H14.6335C14.8022 13.125 14.9641 13.0559 15.0834 12.9328C15.2027 12.8097 15.2697 12.6428 15.2697 12.4688C15.2697 12.2947 15.2027 12.1278 15.0834 12.0047C14.9641 11.8816 14.8022 11.8125 14.6335 11.8125H6.99855C6.82981 11.8125 6.66798 11.8816 6.54866 12.0047C6.42934 12.1278 6.3623 12.2947 6.3623 12.4688C6.3623 12.6428 6.42934 12.8097 6.54866 12.9328C6.66798 13.0559 6.82981 13.125 6.99855 13.125ZM6.99855 34.125H23.5409C23.7097 34.125 23.8715 34.0559 23.9908 33.9328C24.1102 33.8097 24.1772 33.6428 24.1772 33.4688C24.1772 33.2947 24.1102 33.1278 23.9908 33.0047C23.8715 32.8816 23.7097 32.8125 23.5409 32.8125H6.99855C6.82981 32.8125 6.66798 32.8816 6.54866 33.0047C6.42934 33.1278 6.3623 33.2947 6.3623 33.4688C6.3623 33.6428 6.42934 33.8097 6.54866 33.9328C6.66798 34.0559 6.82981 34.125 6.99855 34.125Z" fill="black"/>
</svg>
