<svg width="253" height="56" viewBox="0 0 253 56" fill="none" xmlns="http://www.w3.org/2000/svg">
<path d="M17.532 29.04C18.996 29.352 20.172 30.084 21.06 31.236C21.948 32.364 22.392 33.66 22.392 35.124C22.392 37.236 21.648 38.916 20.16 40.164C18.696 41.388 16.644 42 14.004 42H2.232V16.728H13.608C16.176 16.728 18.18 17.316 19.62 18.492C21.084 19.668 21.816 21.264 21.816 23.28C21.816 24.768 21.42 26.004 20.628 26.988C19.86 27.972 18.828 28.656 17.532 29.04ZM8.388 26.952H12.42C13.428 26.952 14.196 26.736 14.724 26.304C15.276 25.848 15.552 25.188 15.552 24.324C15.552 23.46 15.276 22.8 14.724 22.344C14.196 21.888 13.428 21.66 12.42 21.66H8.388V26.952ZM12.924 37.032C13.956 37.032 14.748 36.804 15.3 36.348C15.876 35.868 16.164 35.184 16.164 34.296C16.164 33.408 15.864 32.712 15.264 32.208C14.688 31.704 13.884 31.452 12.852 31.452H8.388V37.032H12.924ZM24.7385 31.92C24.7385 29.856 25.1225 28.044 25.8905 26.484C26.6825 24.924 27.7505 23.724 29.0945 22.884C30.4385 22.044 31.9385 21.624 33.5945 21.624C35.0105 21.624 36.2465 21.912 37.3025 22.488C38.3825 23.064 39.2105 23.82 39.7865 24.756V21.912H45.9425V42H39.7865V39.156C39.1865 40.092 38.3465 40.848 37.2665 41.424C36.2105 42 34.9745 42.288 33.5585 42.288C31.9265 42.288 30.4385 41.868 29.0945 41.028C27.7505 40.164 26.6825 38.952 25.8905 37.392C25.1225 35.808 24.7385 33.984 24.7385 31.92ZM39.7865 31.956C39.7865 30.42 39.3545 29.208 38.4905 28.32C37.6505 27.432 36.6185 26.988 35.3945 26.988C34.1705 26.988 33.1265 27.432 32.2625 28.32C31.4225 29.184 31.0025 30.384 31.0025 31.92C31.0025 33.456 31.4225 34.68 32.2625 35.592C33.1265 36.48 34.1705 36.924 35.3945 36.924C36.6185 36.924 37.6505 36.48 38.4905 35.592C39.3545 34.704 39.7865 33.492 39.7865 31.956ZM61.5921 36.78V42H58.4601C56.2281 42 54.4881 41.46 53.2401 40.38C51.9921 39.276 51.3681 37.488 51.3681 35.016V27.024H48.9201V21.912H51.3681V17.016H57.5241V21.912H61.5561V27.024H57.5241V35.088C57.5241 35.688 57.6681 36.12 57.9561 36.384C58.2441 36.648 58.7241 36.78 59.3961 36.78H61.5921ZM63.7971 31.956C63.7971 29.868 64.2171 28.044 65.0571 26.484C65.9211 24.924 67.1091 23.724 68.6211 22.884C70.1571 22.044 71.9091 21.624 73.8771 21.624C76.3971 21.624 78.4971 22.284 80.1771 23.604C81.8811 24.924 82.9971 26.784 83.5251 29.184H76.9731C76.4211 27.648 75.3531 26.88 73.7691 26.88C72.6411 26.88 71.7411 27.324 71.0691 28.212C70.3971 29.076 70.0611 30.324 70.0611 31.956C70.0611 33.588 70.3971 34.848 71.0691 35.736C71.7411 36.6 72.6411 37.032 73.7691 37.032C75.3531 37.032 76.4211 36.264 76.9731 34.728H83.5251C82.9971 37.08 81.8811 38.928 80.1771 40.272C78.4731 41.616 76.3731 42.288 73.8771 42.288C71.9091 42.288 70.1571 41.868 68.6211 41.028C67.1091 40.188 65.9211 38.988 65.0571 37.428C64.2171 35.868 63.7971 34.044 63.7971 31.956ZM99.1659 21.696C101.47 21.696 103.318 22.464 104.71 24C106.102 25.512 106.798 27.6 106.798 30.264V42H100.678V31.092C100.678 29.748 100.33 28.704 99.6339 27.96C98.9379 27.216 98.0019 26.844 96.8259 26.844C95.6499 26.844 94.7139 27.216 94.0179 27.96C93.3219 28.704 92.9739 29.748 92.9739 31.092V42H86.8179V15.36H92.9739V24.612C93.5979 23.724 94.4499 23.016 95.5299 22.488C96.6099 21.96 97.8219 21.696 99.1659 21.696ZM146.474 16.98V42H142.37V24.864L134.738 42H131.894L124.226 24.864V42H120.122V16.98H124.55L133.334 36.6L142.082 16.98H146.474ZM150.5 31.992C150.5 30 150.908 28.236 151.724 26.7C152.564 25.164 153.692 23.976 155.108 23.136C156.548 22.272 158.132 21.84 159.86 21.84C161.42 21.84 162.776 22.152 163.928 22.776C165.104 23.376 166.04 24.132 166.736 25.044V22.164H170.876V42H166.736V39.048C166.04 39.984 165.092 40.764 163.892 41.388C162.692 42.012 161.324 42.324 159.788 42.324C158.084 42.324 156.524 41.892 155.108 41.028C153.692 40.14 152.564 38.916 151.724 37.356C150.908 35.772 150.5 33.984 150.5 31.992ZM166.736 32.064C166.736 30.696 166.448 29.508 165.872 28.5C165.32 27.492 164.588 26.724 163.676 26.196C162.764 25.668 161.78 25.404 160.724 25.404C159.668 25.404 158.684 25.668 157.772 26.196C156.86 26.7 156.116 27.456 155.54 28.464C154.988 29.448 154.712 30.624 154.712 31.992C154.712 33.36 154.988 34.56 155.54 35.592C156.116 36.624 156.86 37.416 157.772 37.968C158.708 38.496 159.692 38.76 160.724 38.76C161.78 38.76 162.764 38.496 163.676 37.968C164.588 37.44 165.32 36.672 165.872 35.664C166.448 34.632 166.736 33.432 166.736 32.064ZM184.258 21.84C185.794 21.84 187.15 22.152 188.326 22.776C189.526 23.376 190.462 24.132 191.134 25.044V22.164H195.274V42.324C195.274 44.148 194.89 45.768 194.122 47.184C193.354 48.624 192.238 49.752 190.774 50.568C189.334 51.384 187.606 51.792 185.59 51.792C182.902 51.792 180.67 51.156 178.894 49.884C177.118 48.636 176.11 46.932 175.87 44.772H179.938C180.25 45.804 180.91 46.632 181.918 47.256C182.95 47.904 184.174 48.228 185.59 48.228C187.246 48.228 188.578 47.724 189.586 46.716C190.618 45.708 191.134 44.244 191.134 42.324V39.012C190.438 39.948 189.49 40.74 188.29 41.388C187.114 42.012 185.77 42.324 184.258 42.324C182.53 42.324 180.946 41.892 179.506 41.028C178.09 40.14 176.962 38.916 176.122 37.356C175.306 35.772 174.898 33.984 174.898 31.992C174.898 30 175.306 28.236 176.122 26.7C176.962 25.164 178.09 23.976 179.506 23.136C180.946 22.272 182.53 21.84 184.258 21.84ZM191.134 32.064C191.134 30.696 190.846 29.508 190.27 28.5C189.718 27.492 188.986 26.724 188.074 26.196C187.162 25.668 186.178 25.404 185.122 25.404C184.066 25.404 183.082 25.668 182.17 26.196C181.258 26.7 180.514 27.456 179.938 28.464C179.386 29.448 179.11 30.624 179.11 31.992C179.11 33.36 179.386 34.56 179.938 35.592C180.514 36.624 181.258 37.416 182.17 37.968C183.106 38.496 184.09 38.76 185.122 38.76C186.178 38.76 187.162 38.496 188.074 37.968C188.986 37.44 189.718 36.672 190.27 35.664C190.846 34.632 191.134 33.432 191.134 32.064ZM202.753 19.536C202.009 19.536 201.385 19.284 200.881 18.78C200.377 18.276 200.125 17.652 200.125 16.908C200.125 16.164 200.377 15.54 200.881 15.036C201.385 14.532 202.009 14.28 202.753 14.28C203.473 14.28 204.085 14.532 204.589 15.036C205.093 15.54 205.345 16.164 205.345 16.908C205.345 17.652 205.093 18.276 204.589 18.78C204.085 19.284 203.473 19.536 202.753 19.536ZM204.769 22.164V42H200.665V22.164H204.769ZM208.789 32.064C208.789 30.024 209.197 28.236 210.013 26.7C210.853 25.14 212.005 23.94 213.469 23.1C214.933 22.26 216.613 21.84 218.509 21.84C220.909 21.84 222.889 22.416 224.449 23.568C226.033 24.696 227.101 26.316 227.653 28.428H223.225C222.865 27.444 222.289 26.676 221.497 26.124C220.705 25.572 219.709 25.296 218.509 25.296C216.829 25.296 215.485 25.896 214.477 27.096C213.493 28.272 213.001 29.928 213.001 32.064C213.001 34.2 213.493 35.868 214.477 37.068C215.485 38.268 216.829 38.868 218.509 38.868C220.885 38.868 222.457 37.824 223.225 35.736H227.653C227.077 37.752 225.997 39.36 224.413 40.56C222.829 41.736 220.861 42.324 218.509 42.324C216.613 42.324 214.933 41.904 213.469 41.064C212.005 40.2 210.853 39 210.013 37.464C209.197 35.904 208.789 34.104 208.789 32.064Z" fill="white"/>
<path d="M217 1L217.809 3.72661C218.16 4.91226 219.088 5.84004 220.273 6.19147L223 7L220.273 7.80853C219.088 8.15996 218.16 9.08774 217.809 10.2734L217 13L216.191 10.2734C215.84 9.08774 214.912 8.15996 213.727 7.80853L211 7L213.727 6.19147C214.912 5.84004 215.84 4.91226 216.191 3.72661L217 1Z" fill="#FFAD05"/>
<g clip-path="url(#clip0_1_434)">
<path d="M236 6L236.943 9.18105C237.353 10.5643 238.436 11.6467 239.819 12.0567L243 13L239.819 13.9433C238.436 14.3533 237.353 15.4357 236.943 16.819L236 20L235.057 16.819C234.647 15.4357 233.564 14.3533 232.181 13.9433L229 13L232.181 12.0567C233.564 11.6467 234.647 10.5643 235.057 9.18105L236 6Z" fill="#FFAD05"/>
</g>
<path d="M246 23L246.809 25.7266C247.16 26.9123 248.088 27.84 249.273 28.1915L252 29L249.273 29.8085C248.088 30.16 247.16 31.0877 246.809 32.2734L246 35L245.191 32.2734C244.84 31.0877 243.912 30.16 242.727 29.8085L240 29L242.727 28.1915C243.912 27.84 244.84 26.9123 245.191 25.7266L246 23Z" fill="#FFAD05"/>
<defs>
<clipPath id="clip0_1_434">
<rect width="14" height="14" fill="white" transform="translate(229 6)"/>
</clipPath>
</defs>
</svg>
