<svg width="28" height="28" viewBox="0 0 28 28" fill="none" xmlns="http://www.w3.org/2000/svg">
<path fill-rule="evenodd" clip-rule="evenodd" d="M23.9944 5.32773C24.0812 5.24096 24.15 5.13794 24.197 5.02456C24.2439 4.91118 24.2681 4.78966 24.2681 4.66693C24.2681 4.54421 24.2439 4.42269 24.197 4.30931C24.15 4.19593 24.0812 4.09291 23.9944 4.00613C23.9076 3.91936 23.8046 3.85052 23.6912 3.80356C23.5778 3.75659 23.4563 3.73242 23.3336 3.73242C23.2109 3.73242 23.0894 3.75659 22.976 3.80356C22.8626 3.85052 22.7596 3.91936 22.6728 4.00613L14.0003 12.6805L5.32773 4.00613C5.24096 3.91936 5.13794 3.85052 5.02456 3.80356C4.91118 3.75659 4.78966 3.73242 4.66693 3.73242C4.54421 3.73242 4.42269 3.75659 4.30931 3.80356C4.19593 3.85052 4.09291 3.91936 4.00613 4.00613C3.91936 4.09291 3.85052 4.19593 3.80356 4.30931C3.75659 4.42269 3.73242 4.54421 3.73242 4.66693C3.73242 4.78966 3.75659 4.91118 3.80356 5.02456C3.85052 5.13794 3.91936 5.24096 4.00613 5.32773L12.6805 14.0003L4.00613 22.6728C3.83088 22.8481 3.73242 23.0858 3.73242 23.3336C3.73242 23.5814 3.83088 23.8191 4.00613 23.9944C4.18139 24.1697 4.41909 24.2681 4.66693 24.2681C4.91478 24.2681 5.15248 24.1697 5.32773 23.9944L14.0003 15.32L22.6728 23.9944C22.8481 24.1697 23.0858 24.2681 23.3336 24.2681C23.5814 24.2681 23.8191 24.1697 23.9944 23.9944C24.1697 23.8191 24.2681 23.5814 24.2681 23.3336C24.2681 23.0858 24.1697 22.8481 23.9944 22.6728L15.32 14.0003L23.9944 5.32773Z" fill="#302980"/>
</svg>
