<svg width="33" height="17" viewBox="0 0 33 17" fill="none" xmlns="http://www.w3.org/2000/svg">
<path d="M31.7937 8.11618L28.2581 8.11618M14.8054 8.11618L22.0709 8.11618M22.0709 8.11618L22.0709 13.4195L28.2581 13.4195L28.2581 8.11618M22.0709 8.11618L28.2581 8.11618M14.8054 8.11618C14.8115 9.02287 14.6382 9.92181 14.2954 10.7612C13.9526 11.6007 13.4472 12.364 12.8082 13.0073C12.1692 13.6506 11.4093 14.1611 10.5722 14.5095C9.73505 14.8579 8.83729 15.0372 7.93058 15.0372C7.02387 15.0372 6.12611 14.8579 5.28899 14.5095C4.45188 14.1611 3.69195 13.6506 3.05296 13.0073C2.41397 12.364 1.90854 11.6007 1.56577 10.7612C1.22299 9.92181 1.04966 9.02287 1.05573 8.11618C1.08706 6.31378 1.82505 4.59579 3.11076 3.33223C4.39647 2.06868 6.12702 1.36065 7.92969 1.36065C9.73237 1.36065 11.4629 2.06868 12.7486 3.33223C14.0343 4.59579 14.7723 6.31378 14.8037 8.11618L14.8054 8.11618Z" stroke="#FFAD05" stroke-width="2" stroke-linecap="round" stroke-linejoin="round"/>
</svg>
