<svg width="72" height="72" viewBox="0 0 72 72" fill="none" xmlns="http://www.w3.org/2000/svg">
<path d="M0.00224605 2.25C0.00224605 1.65326 0.239292 1.08097 0.661236 0.65901C1.08318 0.237053 1.65546 0 2.25218 0H36.0011C45.5486 0 54.7051 3.79285 61.4562 10.5442C68.2073 17.2955 72 26.4522 72 36V36.0135C72.0041 41.1195 70.9194 46.1677 68.8181 50.8212C66.7168 55.4748 63.6473 59.6267 59.8144 63H52.2366C58.1404 59.4521 62.7186 54.0669 65.2701 47.669C67.8217 41.271 68.2059 34.2131 66.3639 27.576C64.5219 20.9388 60.5552 15.0885 55.0714 10.9207C49.5876 6.75295 42.8889 4.49759 36.0011 4.5H2.25218C1.65546 4.5 1.08318 4.26295 0.661236 3.84099C0.239292 3.41903 0.00224605 2.84674 0.00224605 2.25ZM36.0011 72C28.6888 72.0005 21.5497 69.774 15.5339 65.6169C9.51813 61.4598 4.91092 55.5692 2.32541 48.729C-0.260098 41.8888 -0.701302 34.4234 1.06051 27.3262C2.82233 20.2291 6.70362 13.8368 12.1879 9H19.7656C14.6367 12.0816 10.4921 16.561 7.81754 21.9136C5.14295 27.2661 4.04908 33.2701 4.6641 39.222C5.46645 46.9762 9.11352 54.1581 14.901 59.3806C20.6885 64.6031 28.2058 67.4958 36.0011 67.5H69.7501C70.3468 67.5 70.9191 67.7371 71.341 68.159C71.7629 68.581 72 69.1533 72 69.75C72 70.3467 71.7629 70.919 71.341 71.341C70.9191 71.7629 70.3468 72 69.7501 72H36.0011ZM38.251 24.75C38.251 24.1533 38.014 23.581 37.5921 23.159C37.1701 22.7371 36.5978 22.5 36.0011 22.5C35.4044 22.5 34.8321 22.7371 34.4102 23.159C33.9882 23.581 33.7512 24.1533 33.7512 24.75V33.75H24.7515C24.1548 33.75 23.5825 33.9871 23.1605 34.409C22.7386 34.831 22.5015 35.4033 22.5015 36C22.5015 36.5967 22.7386 37.169 23.1605 37.591C23.5825 38.0129 24.1548 38.25 24.7515 38.25H33.7512V47.25C33.7512 47.8467 33.9882 48.419 34.4102 48.841C34.8321 49.2629 35.4044 49.5 36.0011 49.5C36.5978 49.5 37.1701 49.2629 37.5921 48.841C38.014 48.419 38.251 47.8467 38.251 47.25V38.25H47.2508C47.8475 38.25 48.4198 38.0129 48.8417 37.591C49.2636 37.169 49.5007 36.5967 49.5007 36C49.5007 35.4033 49.2636 34.831 48.8417 34.409C48.4198 33.9871 47.8475 33.75 47.2508 33.75H38.251V24.75Z" fill="#FFAD05"/>
</svg>
