<svg width="55" height="55" viewBox="0 0 55 55" fill="none" xmlns="http://www.w3.org/2000/svg">
<g clip-path="url(#clip0_1431_1555)">
<path d="M52.1356 27.5002C52.1356 32.3726 50.6908 37.1356 47.9838 41.1869C45.2768 45.2381 41.4293 48.3957 36.9277 50.2603C32.4262 52.1249 27.4728 52.6128 22.694 51.6622C17.9152 50.7117 13.5256 48.3654 10.0803 44.92C6.63498 41.4747 4.28868 37.0851 3.33812 32.3063C2.38756 27.5275 2.87542 22.5741 4.74002 18.0726C6.60461 13.5711 9.7622 9.72354 13.8135 7.01656C17.8647 4.30959 22.6277 2.86475 27.5002 2.86475M45.2766 9.7237L25.998 35.9656L13.5577 25.5511" stroke="white" stroke-width="5" stroke-linecap="round" stroke-linejoin="round"/>
</g>
<defs>
<clipPath id="clip0_1431_1555">
<rect width="55" height="55" fill="white"/>
</clipPath>
</defs>
</svg>
